<?xml version="1.0" standalone="no"?>
<!DOCTYPE svg PUBLIC "-//W3C//DTD SVG 20010904//EN"
 "http://www.w3.org/TR/2001/REC-SVG-20010904/DTD/svg10.dtd">
<svg version="1.0" xmlns="http://www.w3.org/2000/svg"
 width="215.000000pt" height="224.000000pt" viewBox="0 0 215.000000 224.000000"
 preserveAspectRatio="xMidYMid meet">

<g transform="translate(0.000000,224.000000) scale(0.100000,-0.100000)"
fill="#000000" stroke="none">
<path d="M1049 2210 c-65 -11 -127 -45 -179 -99 -79 -80 -109 -148 -119 -271
l-6 -75 -108 -6 c-159 -8 -158 -6 -188 -294 -11 -98 -19 -174 -39 -337 -5 -46
-17 -150 -25 -233 -15 -139 -22 -200 -45 -390 -20 -167 -23 -234 -11 -262 22
-54 38 -57 271 -64 l215 -5 90 -36 c204 -82 255 -98 255 -80 0 4 -30 41 -67
82 -36 41 -84 95 -106 120 -55 62 -239 269 -316 354 -98 110 -96 93 -63 411
16 149 25 155 243 155 92 0 182 -3 200 -7 39 -7 88 -56 278 -272 69 -80 151
-173 181 -206 170 -189 198 -221 224 -257 44 -60 37 -76 -87 -181 -83 -71 -79
-77 56 -77 202 0 223 16 214 168 -5 83 -23 264 -42 422 -3 25 -10 82 -15 128
-6 45 -14 119 -20 165 -5 45 -17 150 -25 232 -9 83 -20 174 -26 204 -5 30 -9
72 -9 94 0 56 -19 113 -47 139 -21 20 -37 23 -129 26 -119 5 -109 -5 -118 118
-12 181 -149 323 -326 337 -36 3 -86 2 -111 -3z m191 -108 c48 -22 97 -69 128
-121 22 -37 25 -56 26 -130 l1 -86 -275 0 -275 0 -3 55 c-8 143 92 279 222
301 55 9 133 0 176 -19z m-405 -497 c0 -37 -25 -53 -59 -37 -32 14 -34 45 -5
66 31 21 64 6 64 -29z m639 29 c34 -34 8 -82 -39 -70 -43 11 -28 84 17 86 4 0
14 -7 22 -16z"/>
<path d="M813 998 c-48 -23 -46 -104 3 -127 22 -10 32 -8 58 7 24 14 32 26 34
55 3 32 -1 39 -30 57 -37 23 -35 22 -65 8z"/>
</g>
</svg>
